<svg width="58" height="61" viewBox="0 0 58 61" fill="none" xmlns="http://www.w3.org/2000/svg">
<path d="M55.3935 14.2402H41.4274L32.3997 5.31337C32.5897 4.85412 32.6943 4.34894 32.6943 3.81913C32.6943 1.71588 31.0378 0 29.0007 0C26.9629 0 25.3064 1.71588 25.3064 3.81913C25.3064 4.34894 25.4117 4.85412 25.6017 5.31337L16.5732 14.2402H2.60717C1.16654 14.2402 0 15.4463 0 16.9332V57.4374C0 58.925 1.16654 60.1317 2.60717 60.1317H55.3928C56.8335 60.1317 58 58.9257 58 57.4374V16.9332C58 15.4463 56.8348 14.2402 55.3935 14.2402ZM27.4071 7.25888C27.8897 7.49916 28.4293 7.6376 29 7.6376C29.5707 7.6376 30.1103 7.49916 30.5929 7.25888L37.3128 13.9008H20.6866L27.4071 7.25888ZM52.7876 54.7438H5.21302V19.6281H52.787V54.7438H52.7876ZM11.721 49.4444H46.279C46.9993 49.4444 47.5819 48.8434 47.5819 48.0992V26.2767C47.5819 25.5325 46.9993 24.9315 46.279 24.9315H11.721C11.0007 24.9315 10.4181 25.5325 10.4181 26.2767V48.1006C10.4181 48.8434 11.0007 49.4444 11.721 49.4444ZM13.0259 27.6252H44.9761V46.7508H13.0259V27.6252Z" fill="black"/>
</svg>
